<svg width="23" height="18" viewBox="0 0 23 18" fill="none" xmlns="http://www.w3.org/2000/svg">
    <g clip-path="url(#clip0_314_144)">
        <path opacity="0.3"
            d="M9 8C6.79086 8 5 6.20914 5 4C5 1.79086 6.79086 0 9 0C11.2091 0 13 1.79086 13 4C13 6.20914 11.2091 8 9 8Z"
            fill="currentColor" />
        <path
            d="M0.000651684 17.1992C0.388259 12.4265 4.26191 10 8.98334 10C13.7712 10 17.7049 12.2932 17.9979 17.2C18.0096 17.3955 17.9979 18 17.2467 18C13.5411 18 8.03472 18 0.727502 18C0.476712 18 -0.0204618 17.4592 0.000651684 17.1992Z"
            fill="currentColor" />
        <path
            d="M22.0603 0.176186C22.2511 -0.0342175 22.5876 -0.0598031 22.8121 0.11904C23.0365 0.297882 23.0638 0.613429 22.873 0.823832L18.3397 5.82382C18.1459 6.03752 17.8026 6.06004 17.579 5.8737L15.179 3.8737C14.9589 3.69024 14.939 3.37421 15.1347 3.16782C15.3304 2.96143 15.6675 2.94284 15.8877 3.1263L17.8801 4.78667L22.0603 0.176186Z"
            fill="currentColor" />
    </g>
    <defs>
        <clipPath id="clip0_314_144">
            <rect width="23" height="18" fill="white" />
        </clipPath>
    </defs>
</svg>