<svg width="25" height="18" viewBox="0 0 25 18" fill="none" xmlns="http://www.w3.org/2000/svg">
    <path
        d="M2.91974 17H0.857244V11.1818H2.93679C3.52202 11.1818 4.0258 11.2983 4.44815 11.5312C4.8705 11.7623 5.19531 12.0947 5.42259 12.5284C5.65175 12.9621 5.76634 13.4811 5.76634 14.0852C5.76634 14.6913 5.65175 15.2121 5.42259 15.6477C5.19531 16.0833 4.86861 16.4176 4.44247 16.6506C4.01823 16.8835 3.51065 17 2.91974 17ZM2.08736 15.946H2.86861C3.23224 15.946 3.53812 15.8816 3.78622 15.7528C4.03622 15.6222 4.22372 15.4205 4.34872 15.1477C4.47562 14.8731 4.53906 14.5189 4.53906 14.0852C4.53906 13.6553 4.47562 13.304 4.34872 13.0312C4.22372 12.7585 4.03717 12.5578 3.78906 12.429C3.54096 12.3002 3.23509 12.2358 2.87145 12.2358H2.08736V15.946ZM6.67756 17V11.1818H10.598V12.196H7.90767V13.5824H10.3963V14.5966H7.90767V15.9858H10.6094V17H6.67756ZM11.576 11.1818H13.093L14.6953 15.0909H14.7635L16.3658 11.1818H17.8828V17H16.6896V13.2131H16.6413L15.1357 16.9716H14.3232L12.8175 13.1989H12.7692V17H11.576V11.1818ZM24.2429 14.0909C24.2429 14.7254 24.1226 15.2652 23.8821 15.7102C23.6435 16.1553 23.3177 16.4953 22.9048 16.7301C22.4938 16.9631 22.0317 17.0795 21.5185 17.0795C21.0014 17.0795 20.5374 16.9621 20.1264 16.7273C19.7154 16.4924 19.3906 16.1525 19.152 15.7074C18.9134 15.2623 18.794 14.7235 18.794 14.0909C18.794 13.4564 18.9134 12.9167 19.152 12.4716C19.3906 12.0265 19.7154 11.6875 20.1264 11.4545C20.5374 11.2197 21.0014 11.1023 21.5185 11.1023C22.0317 11.1023 22.4938 11.2197 22.9048 11.4545C23.3177 11.6875 23.6435 12.0265 23.8821 12.4716C24.1226 12.9167 24.2429 13.4564 24.2429 14.0909ZM22.9957 14.0909C22.9957 13.6799 22.9342 13.3333 22.8111 13.0511C22.6899 12.7689 22.5185 12.5549 22.2969 12.4091C22.0753 12.2633 21.8158 12.1903 21.5185 12.1903C21.2211 12.1903 20.9616 12.2633 20.7401 12.4091C20.5185 12.5549 20.3461 12.7689 20.223 13.0511C20.1018 13.3333 20.0412 13.6799 20.0412 14.0909C20.0412 14.5019 20.1018 14.8485 20.223 15.1307C20.3461 15.4129 20.5185 15.6269 20.7401 15.7727C20.9616 15.9186 21.2211 15.9915 21.5185 15.9915C21.8158 15.9915 22.0753 15.9186 22.2969 15.7727C22.5185 15.6269 22.6899 15.4129 22.8111 15.1307C22.9342 14.8485 22.9957 14.5019 22.9957 14.0909Z"
        fill="currentColor" />
    <path
        d="M12 8C9.79086 8 8 6.20914 8 4C8 1.79086 9.79086 0 12 0C14.2091 0 16 1.79086 16 4C16 6.20914 14.2091 8 12 8ZM12 7.2C13.7673 7.2 15.2 5.76731 15.2 4C15.2 2.23269 13.7673 0.8 12 0.8C10.2327 0.8 8.8 2.23269 8.8 4C8.8 5.76731 10.2327 7.2 12 7.2ZM14.8284 1.17157C14.9846 1.32778 14.9846 1.58105 14.8284 1.73726L9.73726 6.82843C9.58105 6.98464 9.32778 6.98464 9.17157 6.82843C9.01536 6.67222 9.01536 6.41895 9.17157 6.26274L14.2627 1.17157C14.419 1.01536 14.6722 1.01536 14.8284 1.17157Z"
        fill="currentColor" />
</svg>