<svg width="24" height="14" viewBox="0 0 54 32" fill="none" xmlns="http://www.w3.org/2000/svg">
    <path fill-rule="evenodd" clip-rule="evenodd"
        d="M3.66504 0H50.335C52.3521 0 54 1.63691 54 3.62117V28.3788C54 30.3588 52.3433 32 50.335 32H3.66504C1.65674 32 0 30.3718 0 28.3788V3.62117C0 1.62822 1.64795 0 3.66504 0ZM8.12988 9.32212H10.7578C12.4541 9.32212 13.6055 9.40027 14.2031 9.55224C14.8008 9.70421 15.2578 9.95604 15.5698 10.3077C15.8818 10.6594 16.0796 11.0545 16.1543 11.4844C16.2334 11.9142 16.2686 12.7653 16.2686 14.0288V18.7094C16.2686 19.9077 16.2114 20.7066 16.0928 21.1104C15.9785 21.5142 15.7808 21.8312 15.4951 22.057C15.2139 22.2871 14.8623 22.4434 14.4448 22.5389C14.0273 22.6301 13.3989 22.6735 12.5552 22.6735H8.12988V9.32212ZM11.6411 11.606V20.3897C12.1509 20.3897 12.4629 20.2898 12.5771 20.0901C12.6958 19.8904 12.7529 19.3476 12.7529 18.4488V13.2646C12.7529 12.6611 12.7354 12.2703 12.7002 12.101C12.6562 11.9316 12.5728 11.81 12.4321 11.7275C12.2871 11.645 12.0278 11.606 11.6411 11.606ZM17.877 9.32212H23.7393V11.9967H21.3926V14.5281H23.5898V17.0725H21.3926V20.0119H23.9722V22.6822H17.877V9.32212ZM36.1318 9.32212V22.6779H33.0601V13.664L31.834 22.6779H29.6543L28.3579 13.8681V22.6779H25.2861V9.32212H29.8389C29.9751 10.1254 30.1113 11.0719 30.2651 12.1617L30.7485 15.5615L31.5527 9.32212H36.1318ZM45.8701 17.1419C45.8701 18.4836 45.8394 19.4345 45.7778 19.9902C45.7119 20.5503 45.5142 21.0583 45.1802 21.5229C44.8418 21.9832 44.3892 22.3392 43.8135 22.5867C43.2378 22.8342 42.5698 22.9601 41.8096 22.9601C41.0845 22.9601 40.4341 22.8429 39.8584 22.6084C39.2783 22.3739 38.8169 22.0266 38.4653 21.5577C38.1138 21.0887 37.9028 20.5807 37.8369 20.0337C37.771 19.4822 37.7358 18.5227 37.7358 17.1419V14.8581C37.7358 13.5164 37.7666 12.5655 37.8369 12.0011C37.8984 11.4453 38.0962 10.933 38.4346 10.4727C38.7729 10.0125 39.2256 9.65645 39.8013 9.40896C40.3726 9.16147 41.0405 9.03555 41.8052 9.03555C42.5303 9.03555 43.1763 9.15278 43.752 9.38725C44.3276 9.62171 44.7935 9.97341 45.145 10.438C45.4922 10.9069 45.7031 11.4149 45.769 11.9664C45.835 12.5134 45.8701 13.4773 45.8701 14.8581V17.1419ZM42.3589 12.7566C42.3589 12.1313 42.3237 11.7362 42.2534 11.5626C42.1875 11.3889 42.0425 11.302 41.8228 11.302C41.6382 11.302 41.4976 11.3715 41.4009 11.5148C41.2998 11.6537 41.2515 12.0662 41.2515 12.7566V18.9872C41.2515 19.7688 41.2822 20.2464 41.3481 20.4244C41.4141 20.6068 41.5635 20.6936 41.7964 20.6936C42.0381 20.6936 42.1875 20.5938 42.2578 20.381C42.3237 20.1726 42.3589 19.6733 42.3589 18.883V12.7566Z"
        fill="currentColor" fill-opacity="1" />
</svg>