<svg width="24" height="24" viewBox="0 0 54 54" fill="none" xmlns="http://www.w3.org/2000/svg">
    <path opacity="0.5" fill-rule="evenodd" clip-rule="evenodd"
        d="M3.66504 11H50.335C52.3521 11 54 12.6369 54 14.6212V39.3788C54 41.3588 52.3433 43 50.335 43H3.66504C1.65674 43 0 41.3718 0 39.3788V14.6212C0 12.6282 1.64795 11 3.66504 11ZM8.12988 20.3221H10.7578C12.4541 20.3221 13.6055 20.4003 14.2031 20.5522C14.8008 20.7042 15.2578 20.956 15.5698 21.3077C15.8818 21.6594 16.0796 22.0545 16.1543 22.4844C16.2334 22.9142 16.2686 23.7653 16.2686 25.0288V29.7094C16.2686 30.9077 16.2114 31.7066 16.0928 32.1104C15.9785 32.5142 15.7808 32.8312 15.4951 33.057C15.2139 33.2871 14.8623 33.4434 14.4448 33.5389C14.0273 33.6301 13.3989 33.6735 12.5552 33.6735H8.12988V20.3221ZM11.6411 22.606V31.3897C12.1509 31.3897 12.4629 31.2898 12.5771 31.0901C12.6958 30.8904 12.7529 30.3476 12.7529 29.4488V24.2646C12.7529 23.6611 12.7354 23.2703 12.7002 23.101C12.6562 22.9316 12.5728 22.81 12.4321 22.7275C12.2871 22.645 12.0278 22.606 11.6411 22.606ZM17.877 20.3221H23.7393V22.9967H21.3926V25.5281H23.5898V28.0725H21.3926V31.0119H23.9722V33.6822H17.877V20.3221ZM36.1318 20.3221V33.6779H33.0601V24.664L31.834 33.6779H29.6543L28.3579 24.8681V33.6779H25.2861V20.3221H29.8389C29.9751 21.1254 30.1113 22.0719 30.2651 23.1617L30.7485 26.5615L31.5527 20.3221H36.1318ZM45.8701 28.1419C45.8701 29.4836 45.8394 30.4345 45.7778 30.9902C45.7119 31.5503 45.5142 32.0583 45.1802 32.5229C44.8418 32.9832 44.3892 33.3392 43.8135 33.5867C43.2378 33.8342 42.5698 33.9601 41.8096 33.9601C41.0845 33.9601 40.4341 33.8429 39.8584 33.6084C39.2783 33.3739 38.8169 33.0266 38.4653 32.5577C38.1138 32.0887 37.9028 31.5807 37.8369 31.0337C37.771 30.4822 37.7358 29.5227 37.7358 28.1419V25.8581C37.7358 24.5164 37.7666 23.5655 37.8369 23.0011C37.8984 22.4453 38.0962 21.933 38.4346 21.4727C38.7729 21.0125 39.2256 20.6564 39.8013 20.409C40.3726 20.1615 41.0405 20.0355 41.8052 20.0355C42.5303 20.0355 43.1763 20.1528 43.752 20.3872C44.3276 20.6217 44.7935 20.9734 45.145 21.438C45.4922 21.9069 45.7031 22.4149 45.769 22.9664C45.835 23.5134 45.8701 24.4773 45.8701 25.8581V28.1419ZM42.3589 23.7566C42.3589 23.1313 42.3237 22.7362 42.2534 22.5626C42.1875 22.3889 42.0425 22.302 41.8228 22.302C41.6382 22.302 41.4976 22.3715 41.4009 22.5148C41.2998 22.6537 41.2515 23.0662 41.2515 23.7566V29.9872C41.2515 30.7688 41.2822 31.2464 41.3481 31.4244C41.4141 31.6068 41.5635 31.6936 41.7964 31.6936C42.0381 31.6936 42.1875 31.5938 42.2578 31.381C42.3237 31.1726 42.3589 30.6733 42.3589 29.883V23.7566Z"
        fill="currentColor" />
    <circle cx="27" cy="27" r="25" stroke="currentColor" stroke-width="4" />
    <path d="M9.90283 40.353L44.5458 12.5148" stroke="currentColor" stroke-width="4"
        stroke-linecap="square" />
</svg>