<svg width="23" height="18" viewBox="0 0 23 18" fill="none" xmlns="http://www.w3.org/2000/svg">
    <g clip-path="url(#clip0_314_139)">
        <path opacity="0.3" fill-rule="evenodd" clip-rule="evenodd"
            d="M5 4C5 6.20914 6.79086 8 9 8C11.2091 8 13 6.20914 13 4C13 1.79086 11.2091 0 9 0C6.79086 0 5 1.79086 5 4Z"
            fill="currentColor" />
        <path
            d="M0.000651684 17.1992C0.388259 12.4265 4.26191 10 8.98334 10C13.7712 10 17.7049 12.2932 17.9979 17.2C18.0096 17.3955 17.9979 18 17.2467 18C13.5411 18 8.03472 18 0.727502 18C0.476712 18 -0.0204618 17.4592 0.000651684 17.1992Z"
            fill="currentColor" />
        <path opacity="1"
            d="M19 8C16.7909 8 15 6.20914 15 4C15 1.79086 16.7909 0 19 0C21.2091 0 23 1.79086 23 4C23 6.20914 21.2091 8 19 8ZM19 7.2C20.7673 7.2 22.2 5.76731 22.2 4C22.2 2.23269 20.7673 0.8 19 0.8C17.2327 0.8 15.8 2.23269 15.8 4C15.8 5.76731 17.2327 7.2 19 7.2ZM21.8284 1.17157C21.9846 1.32778 21.9846 1.58105 21.8284 1.73726L16.7373 6.82843C16.581 6.98464 16.3278 6.98464 16.1716 6.82843C16.0154 6.67222 16.0154 6.41895 16.1716 6.26274L21.2627 1.17157C21.419 1.01536 21.6722 1.01536 21.8284 1.17157Z"
            fill="currentColor" />
    </g>
    <defs>
        <clipPath id="clip0_314_139">
            <rect width="23" height="18" fill="white" />
        </clipPath>
    </defs>
</svg>