<svg
    xmlns="http://www.w3.org/2000/svg"
    xmlns:xlink="http://www.w3.org/1999/xlink"
    width="24px"
    height="24px"
    viewBox="0 0 24 24"
    version="1.1"
>
    <g
        stroke="none"
        stroke-width="1"
        fill="none"
        fill-rule="evenodd"
    >
        <rect x="0" y="0" width="24" height="24" />
        <path
            d="M10,16V7l1.15-.38A12,12,0,0,1,15,6h3.59a3,3,0,0,1,2.94,2.41l.75,3.75a3,3,0,0,1-3.14,3.58L15.5,15.5l.36,4A1.35,1.35,0,0,1,14.62,21H14.5a2.65,2.65,0,0,1-2.27-1.29Z"
            transform="translate(-1)"
            fill="currentcolor"
        />
        <rect
            fill="currentcolor"
            x="3"
            y="6"
            width="5"
            height="11"
            rx="1"
            opacity="0.3"
        />
    </g>
</svg>