<svg xmlns="http://www.w3.org/2000/svg" xmlns:xlink="http://www.w3.org/1999/xlink" width="24px" height="24px" viewBox="0 0 24 24" version="1.1">
    <g stroke="none" stroke-width="1" fill="none" fill-rule="evenodd">
        <path d="M0,7.24v9.85c0,1.1,0,1.2,1.1,1.2h.8V6H1.1C0,6,0,6.14,0,7.24Z" fill="currentColor" opacity="0.3" />
        <path d="M3.7,4.83V19.4c.1.6.4.7,1.4.7h.8v-16H5.1C4.1,4.13,3.8,4.23,3.7,4.83Z" fill="currentColor" opacity="0.5" />
        <path d="M23.4,6.54l-4.8-4a1.81,1.81,0,0,0-1-.4H9.7c-1.1,0-1.6.1-1.7.5A4.78,4.78,0,0,0,7.9,4V20.3A5.13,5.13,0,0,0,8,21.71c.2.5.6.5,1.7.5H22.1c1.8,0,1.9-.1,1.9-1.91V7.64C23.9,7.24,23.8,6.74,23.4,6.54Zm-4.2,6.27-1.3,1.61-1.6,1.91-.1.1-.1.1a.64.64,0,0,1-.7-.1l-3-3.52a.37.37,0,0,1-.1-.3v-.06a.47.47,0,0,1,.5-.44h2V8.05a.47.47,0,0,1,.5-.44h1.16a.46.46,0,0,1,.44.5v4h2a.41.41,0,0,1,.3.1A.49.49,0,0,1,19.2,12.81Z" fill="currentColor" />
    </g>
</svg>