<svg xmlns="http://www.w3.org/2000/svg" width="24px" height="24px" viewBox="0 0 56.32 51.71">
    <g stroke="none" stroke-width="1" fill="none" fill-rule="evenodd">
        <path d="M43.64,9.82a17.12,17.12,0,0,0-32.57,6.29A9.19,9.19,0,0,0,0,25.1c0,9.33,9.8,9.18,9.8,9.18h5.73l8.9-10.38.13-.11A5,5,0,0,1,28,22.47h.27a5,5,0,0,1,3.39,1.32l.13.11,8.89,10.38H45.3s11-1.43,11-12.24A12.21,12.21,0,0,0,43.64,9.82Z" fill="currentColor" fill-rule="nonzero" opacity="0.5"></path>
        <path d="M39.27,37.3,29.57,26a2,2,0,0,0-1.48-.52h0A2,2,0,0,0,26.6,26L16.9,37.3a1.21,1.21,0,0,0-.33,1v.2a1.53,1.53,0,0,0,1.62,1.42h6.47v10.2a.67.67,0,0,0,0,.2,1.52,1.52,0,0,0,1.61,1.42h3.62a1.53,1.53,0,0,0,1.62-1.42V39.89H38a1.52,1.52,0,0,0,1.61-1.42.67.67,0,0,0,0-.2A1.2,1.2,0,0,0,39.27,37.3Z" fill="currentColor" fill-rule="nonzero"></path>
    </g>
</svg>