<svg xmlns="http://www.w3.org/2000/svg" xmlns:xlink="http://www.w3.org/1999/xlink" width="24"
    height="24" viewBox="0 0 26 26" version="1.1">
    <path fill="currentColor" opacity="0.7"
        d="M 13 0.09375 C 9.6970774 0.002002149 6.6469808 1.2512061 4.3125 3.3125 L 2.5 1.5 L 1 8 L 7.5 6.5 L 5.78125 4.78125 C 7.6512467 3.0926495 10.190793 2 13 2 C 19 2 24 6.9 24 13 L 25.90625 14.90625 C 26.00625 14.30625 26 13.69375 26 13.09375 C 26 5.89375 20.2 0.09375 13 0.09375 z M 12.59375 4.65625 C 11.81875 4.65625 10.95625 5 10.40625 6 C 9.80625 7 9.59375 8.30625 10.09375 9.40625 C 10.09375 9.50625 9.90625 9.3125 9.90625 9.8125 C 9.80625 10.3125 10.1125 11.0125 10.3125 11.3125 C 10.4125 11.4125 10.5875 11.49375 10.6875 11.59375 C 10.6875 11.59375 10.8 12.5125 11.5 13.3125 C 11.6 14.0125 11 14.3125 11 14.3125 C 8.9 14.7125 6.90625 15.8875 6.90625 17.1875 L 6.90625 18.1875 C 6.90625 19.5875 10.09375 19.90625 13.09375 19.90625 C 15.99375 19.90625 19.1875 19.0875 19.1875 18.1875 L 19.1875 17.1875 C 19.1875 15.8875 17.19375 14.7125 15.09375 14.3125 C 15.09375 14.3125 14.2875 14.1125 14.6875 13.3125 C 15.1875 12.7125 15.5 11.8875 15.5 11.6875 C 15.5 11.6875 16.3125 11.2125 16.3125 10.3125 C 16.3125 9.4125 16.09375 9.40625 16.09375 9.40625 C 16.39375 8.50625 16.4875 5.00625 14.1875 5.40625 C 14.0375 5.00625 13.36875 4.65625 12.59375 4.65625 z M 0.09375 11.09375 C 0.09375 11.79375 9.2518585e-18 12.4 0 13 C 0 20.2 5.8 26 13 26 C 16.369884 26 19.353767 24.685144 21.625 22.625 L 23.5 24.5 L 25 18 L 18.5 19.5 L 20.21875 21.21875 C 18.256476 22.889078 15.773499 24 13 24 C 7 24 2 19.1 2 13 L 0.09375 11.09375 z" />
</svg>