<svg xmlns="http://www.w3.org/2000/svg" viewBox="0 0 35.94 19.46">
    <path
        d="M35.94,15.23A4.22,4.22,0,0,0,32,11a4.14,4.14,0,0,1-.25,1.74,4.53,4.53,0,0,1-1.15,2l-4.72,4.72h5.8a4.22,4.22,0,0,0,4.26-4.18Z"
        style="fill:#ffce03"></path>
    <path
        d="M18.55,5.21a.54.54,0,0,1,0,.18,1,1,0,0,1,0,.24V6h0A5.4,5.4,0,0,1,17,9.42l-10,10H17.62l6.71-6.71a5.55,5.55,0,0,0,1.6-4.26A6.07,6.07,0,0,0,25.61,7a5.47,5.47,0,0,0-6.95-3.4,3.12,3.12,0,0,0-.39.15c.05.15.1.3.14.46A4.82,4.82,0,0,1,18.55,5.21Z"
        style="fill:#e91f20"></path>
    <path
        d="M18,9.45a5.4,5.4,0,0,0,1.57-3.38V5.59a1,1,0,0,0,0-.24.54.54,0,0,0,0-.18,4.82,4.82,0,0,0-.14-1,1.53,1.53,0,0,0-.14-.46A5.4,5.4,0,0,0,18,1.62a5.53,5.53,0,0,0-7.82,0L1.7,10.05a5.52,5.52,0,0,0-.62.74L.88,11a5.48,5.48,0,0,0,1.61,7.57,5.81,5.81,0,0,0,1.68.72,5.28,5.28,0,0,0,.67.13H8Z"
        style="fill:#00a6e5"></path>
    <path
        d="M31.79,12.77A4.35,4.35,0,0,0,32,11.09a4.67,4.67,0,0,0-4.93-4.41A4.9,4.9,0,0,0,25.61,7a6,6,0,0,1,.32,1.46,5.55,5.55,0,0,1-1.6,4.26l-6.71,6.71h8.3l4.72-4.72A4.52,4.52,0,0,0,31.79,12.77Z"
        style="fill:#3bab3b"></path>
</svg>