<svg xmlns="http://www.w3.org/2000/svg" viewBox="0 0 34.4 43.5" xml:space="preserve">
    <g stroke="none" stroke-width="1" fill="none" fill-rule="evenodd">
        <path d="M33.2 10.7h-5.1V2.5C28.1 1.1 27 0 25.7 0H2.5C1.1 0 0 1.1 0 2.5V41c0 1.4 1.1 2.5 2.5 2.5h23.2c1.4 0 2.5-1.1 2.5-2.5V25.7h5.1c.6 0 1.1-.5 1.1-1.1V11.8c0-.6-.5-1.1-1.2-1.1zM12.1 2H16c.3 0 .6.3.6.6s-.3.6-.6.6h-3.9c-.3 0-.6-.3-.6-.6s.3-.6.6-.6zM17 40.2c0 .9-.7 1.6-1.6 1.6h-2.7c-.9 0-1.6-.7-1.6-1.6v-1.8c0-.9.7-1.6 1.6-1.6h2.7c.9 0 1.6.7 1.6 1.6v1.8zm8.2-5.4c0 .3-.3.6-.6.6H3.5c-.3 0-.6-.3-.6-.6V5.5c0-.3.3-.6.6-.6h21.1c.3 0 .6.3.6.6v5.2h-8.5c-.6 0-1.1.5-1.1 1.1v12.7c0 .6.5 1.1 1.1 1.1H18v2.8c0 .6.4.9.8.9.1 0 .4 0 .6-.2l4-3.3c.1-.1.4-.2.5-.2h1.4v9.2zm-4.8-15.9c-.7-.1-1.8-.4-1.8-1.7 0-1.3 1.1-1.7 1.8-1.7s1.2.4 1.2.4c.3.2.3.5.1.8 0 0-.2.3-.2.4h-.2c-.2-.2-.5-.3-.9-.3-.3 0-.7.1-.7.5 0 .2.1.5.7.5.8.1 1.8.3 1.8 1.7 0 .9-.6 1.8-1.8 1.8-.6 0-1.3-.1-1.9-.9 0 0-.1-.1 0-.2 0-.1.2-.4.2-.4.1-.2.2-.3.4-.3.1 0 .2 0 .3.1 0 0 .6.4 1 .4.3 0 .7-.2.7-.6 0-.3-.1-.5-.7-.5zm7.8 2c0 .2-.1.3-.3.3h-.5c-.2 0-.3-.1-.3-.3v-3.3l-1.3 1.9c-.1.1-.2.2-.3.2-.1 0-.2-.1-.3-.2l-1.3-1.9v3.3c0 .2-.1.3-.3.3h-.5c-.2 0-.3-.1-.3-.3v-4.7c0-.2.1-.3.3-.3h.6c.2 0 .4.1.4.2l1.3 1.8c.1.1.1.1.2 0l1.3-1.8c.1-.1.3-.2.4-.2h.6c.2 0 .3.1.3.3v4.7zm2.4.3c-.6 0-1.3-.1-1.9-.9 0 0-.1-.1 0-.2 0-.1.2-.4.2-.4.1-.2.2-.3.4-.3.1 0 .2 0 .3.1 0 0 .6.4 1 .4.3 0 .7-.2.7-.6 0-.3-.1-.4-.8-.5-.7-.1-1.8-.4-1.8-1.7 0-1.3 1.1-1.7 1.8-1.7s1.2.4 1.2.4c.2.2.3.5.1.8 0 0-.2.3-.2.4-.1.1-.2 0-.2 0-.2-.3-.5-.4-.9-.4-.3 0-.7.1-.7.5 0 .2.1.5.7.5.8.1 1.8.3 1.8 1.7.1 1-.5 1.9-1.7 1.9zm0 0" fill="currentColor" />
    </g>
</svg>