<svg xmlns="http://www.w3.org/2000/svg" xmlns:xlink="http://www.w3.org/1999/xlink" width="24px" height="24px" viewBox="0 0 24 24" version="1.1">
    <g stroke="none" stroke-width="1" fill="none" fill-rule="evenodd">
        <path d="M22.53,14.83C22.75,13.92,24,13,24,12s-1.24-1.92-1.47-2.83.31-2.26-.11-3.17-2-1-2.72-1.7S18.79,2,18,1.58s-2.26.11-3.17-.11S13,0,12,0,10.08,1.24,9.17,1.47,6.91,1.16,6,1.58,5,3.6,4.3,4.3,2,5.21,1.58,6s.11,2.26-.11,3.17S0,11,0,12s1.24,1.92,1.47,2.83-.31,2.26.11,3.17,2,1,2.72,1.7S5.09,22,6,22.42s2.26-.11,3.17.11S11,24,12,24s1.92-1.24,2.83-1.47,2.26.31,3.17-.11,1-2,1.7-2.72S22,18.79,22.42,18,22.31,15.74,22.53,14.83ZM21.4,11.89a9.38,9.38,0,0,1-9.35,9.39H12a9.4,9.4,0,1,1,9.4-9.4Z" fill="currentColor" />
        <path d="M12,4.64a7.25,7.25,0,1,0,7.25,7.25A7.26,7.26,0,0,0,12,4.64Zm3.4,6.23L12,14.26a2.75,2.75,0,0,1-.79.23.81.81,0,0,1-.57-.23l-1.7-1.69a.88.88,0,0,1,1.25-1.25l1.13,1.13,2.83-2.83a.88.88,0,0,1,1.25,1.25Z" fill="currentColor" />
    </g>
</svg>