<svg width="24" height="24" viewBox="0 0 50 50" fill="none" xmlns="http://www.w3.org/2000/svg">
    <path opacity="0.4"
        d="M25.5226 21.4942C25.178 21.464 24.8208 21.4665 24.4866 21.4947C19.469 21.2401 15.5 17.102 15.5 12.0183C15.5 6.75839 19.7307 2.5 25 2.5C30.2353 2.5 34.4962 6.75958 34.5 12.0113C34.4676 17.1118 30.5208 21.2355 25.5226 21.4942Z"
        stroke="currentColor" stroke-width="5" stroke-linecap="round" stroke-linejoin="round" />
    <path opacity="0.34"
        d="M47.25 38.8539C41.2396 43.6258 33.5011 46.5 25.0001 46.5C16.4989 46.5 8.76036 43.6258 2.75005 38.8539C3.37207 36.8668 4.98299 34.7516 7.90014 32.896C12.4944 30.0158 18.698 28.5 25.0278 28.5C31.3601 28.5 37.5427 30.0168 42.0963 32.8937C45.0157 34.7498 46.6277 36.866 47.25 38.8539Z"
        stroke="currentColor" stroke-width="5" stroke-linecap="round" stroke-linejoin="round" />
    <circle cx="34" cy="34" r="16" stroke-width="4" />
    <path
        d="M29.7517 33.0348C29.2186 32.0673 28.0022 31.7153 27.0348 32.2483C26.0673 32.7814 25.7153 33.9978 26.2483 34.9652L29.7517 33.0348ZM26.2483 34.9652L31.6958 44.8508L35.1991 42.9204L29.7517 33.0348L26.2483 34.9652Z"
        fill="currentColor" />
    <path d="M42 26L32.6667 42.7413" stroke="currentColor" stroke-width="4" stroke-linecap="round" />
</svg>