<svg width="24" height="24" viewBox="0 0 50 50" fill="none" xmlns="http://www.w3.org/2000/svg">
    <path opacity="0.4"
        d="M25.5055 21.4937C25.1711 21.4642 24.8264 21.4666 24.5033 21.4942C19.8167 21.2388 15.9614 17.1856 15.9614 12.0183C15.9614 6.66491 20.078 2.5 24.9999 2.5C29.8893 2.5 34.0348 6.66642 34.0383 12.0114C34.0069 17.1948 30.1742 21.2341 25.5055 21.4937Z"
        stroke="currentColor" stroke-width="5" stroke-linecap="round" stroke-linejoin="round" />
    <path opacity="0.34"
        d="M47.3001 39.0954C41.2654 44.3547 33.5026 47.5 25.0001 47.5C16.4974 47.5 8.7346 44.3547 2.69991 39.0954C3.29826 36.7597 4.9754 34.3366 7.98007 32.2592C12.5625 29.1366 18.736 27.5 25.0278 27.5C31.3218 27.5 37.4741 29.1376 42.016 32.2565C45.0231 34.3345 46.7015 36.7587 47.3001 39.0954Z"
        stroke="currentColor" stroke-width="5" stroke-linecap="round" stroke-linejoin="round" />
    <circle cx="25" cy="25" r="23" stroke="currentColor" stroke-width="4" />
    <path d="M8.41187 37.3639L40.4887 11.5879" stroke="currentColor" stroke-width="4"
        stroke-linecap="square" />
</svg>