<svg id="Layer_1" data-name="Layer 1" xmlns="http://www.w3.org/2000/svg" viewBox="0 0 161.61 19.45"><defs><style>.cls-1{fill:#ffffff;}.cls-2{fill:#ffce03;}.cls-3{fill:#e91f20;}.cls-4{fill:#00a6e5;}.cls-5{fill:#3bab3b;}</style></defs><title>lleidanet_cloud_final</title><path class="cls-1" d="M51,4.23h2v9.38h4.55V15.3H51Z"/><path class="cls-1" d="M59,3.64h2V15.3H59Z"/><path class="cls-1" d="M64.65,11.87a2.17,2.17,0,0,0,2.47,2.07,6,6,0,0,0,2.21-.36l.3,1.39a7.49,7.49,0,0,1-2.79.5,3.79,3.79,0,0,1-4.13-4.05c0-2.21,1.35-4.3,3.91-4.3S70.07,9.26,70.07,11a5.49,5.49,0,0,1-.06.86Zm3.52-1.41a1.73,1.73,0,0,0-1.66-2,2,2,0,0,0-1.86,2Z"/><path class="cls-1" d="M73.85,5.07a1.14,1.14,0,0,1-2.27,0,1.14,1.14,0,0,1,2.27,0ZM71.7,15.3v-8h2v8Z"/><path class="cls-1" d="M83.28,3.64v9.41c0,.82,0,1.71.07,2.25H81.54L81.46,14h0a2.88,2.88,0,0,1-2.62,1.44c-1.9,0-3.42-1.62-3.42-4.09,0-2.68,1.66-4.27,3.59-4.27a2.55,2.55,0,0,1,2.25,1h0V3.64Zm-2,7a3.07,3.07,0,0,0-.05-.53,1.77,1.77,0,0,0-1.74-1.43c-1.3,0-2,1.15-2,2.65s.72,2.53,2,2.53a1.8,1.8,0,0,0,1.75-1.43,2.74,2.74,0,0,0,.06-.59Z"/><path class="cls-1" d="M90,15.3l-.13-.88h0a3,3,0,0,1-2.37,1.06,2.37,2.37,0,0,1-2.51-2.38c0-2,1.79-3,4.75-3V10c0-.53-.21-1.4-1.63-1.4a4.27,4.27,0,0,0-2.15.59l-.39-1.31a5.64,5.64,0,0,1,2.89-.71c2.56,0,3.3,1.63,3.3,3.37v2.89a11.77,11.77,0,0,0,.12,1.92Zm-.26-3.91c-1.43,0-2.8.28-2.8,1.5A1.06,1.06,0,0,0,88.05,14a1.64,1.64,0,0,0,1.57-1.1,1.5,1.5,0,0,0,.07-.45Z"/><path class="cls-1" d="M93.55,14.19a1.23,1.23,0,0,1,1.25-1.3,1.21,1.21,0,0,1,1.25,1.3,1.25,1.25,0,1,1-2.5,0Z"/><path class="cls-1" d="M97.67,9.68c0-.92,0-1.69-.06-2.38h1.77l.1,1.2h0a2.88,2.88,0,0,1,2.55-1.38c1.39,0,2.84.9,2.84,3.43V15.3h-2V10.78c0-1.15-.43-2-1.53-2A1.7,1.7,0,0,0,99.79,10a2.18,2.18,0,0,0-.08.65v4.7h-2Z"/><path class="cls-1" d="M108.5,11.87A2.17,2.17,0,0,0,111,13.94a6,6,0,0,0,2.22-.36l.3,1.39a7.55,7.55,0,0,1-2.8.5,3.79,3.79,0,0,1-4.12-4.05c0-2.21,1.35-4.3,3.91-4.3s3.45,2.14,3.45,3.89a5.49,5.49,0,0,1-.06.86ZM112,10.46a1.73,1.73,0,0,0-1.66-2,2,2,0,0,0-1.86,2Z"/><path class="cls-1" d="M117.86,5V7.3h1.93V8.81h-1.93v3.54c0,1,.27,1.47,1,1.47a3.06,3.06,0,0,0,.79-.09l0,1.54a4.3,4.3,0,0,1-1.46.2,2.33,2.33,0,0,1-1.74-.66,3.16,3.16,0,0,1-.63-2.23V8.81h-1.15V7.3h1.15V5.49Z"/><path class="cls-1" d="M132.47,14.91a6.93,6.93,0,0,1-3,.57c-2.68,0-5.25-1.72-5.25-5.65,0-3.29,2.12-5.78,5.61-5.78a5.71,5.71,0,0,1,2.58.49l-.27.66a5.21,5.21,0,0,0-2.3-.48c-3,0-4.81,1.94-4.81,5.13,0,3,1.72,4.94,4.68,4.94a5.76,5.76,0,0,0,2.5-.51Z"/><path class="cls-1" d="M134.32,3.64h.78V15.3h-.78Z"/><path class="cls-1" d="M144.54,11.28c0,3-2,4.2-3.78,4.2-2,0-3.61-1.59-3.61-4.06,0-2.71,1.77-4.19,3.73-4.19C143.07,7.23,144.54,8.86,144.54,11.28Zm-6.6.1c0,2,1.26,3.45,2.87,3.45s2.95-1.48,2.95-3.5c0-1.45-.83-3.45-2.9-3.45S137.94,9.68,137.94,11.38Z"/><path class="cls-1" d="M152.61,13.38c0,.69,0,1.32.07,1.92H152l0-1.39h0a3.06,3.06,0,0,1-2.71,1.57c-1,0-2.68-.49-2.68-3.48V7.42h.77v4.43c0,1.71.55,2.94,2.11,2.94a2.54,2.54,0,0,0,2.31-1.59,2.64,2.64,0,0,0,.17-.87V7.42h.77Z"/><path class="cls-1" d="M161.55,3.64v9.82c0,.59,0,1.28.06,1.84h-.7l0-1.49h0A3,3,0,0,1,158,15.48c-1.94,0-3.41-1.62-3.41-4,0-2.63,1.61-4.28,3.55-4.28a2.82,2.82,0,0,1,2.58,1.38h0v-5Zm-.77,6.9a3.64,3.64,0,0,0-.09-.73,2.55,2.55,0,0,0-2.48-1.93c-1.72,0-2.81,1.49-2.81,3.54,0,1.78.89,3.41,2.76,3.41a2.6,2.6,0,0,0,2.53-2.06,2.68,2.68,0,0,0,.09-.65Z"/><path class="cls-2" d="M35.94,15.23A4.22,4.22,0,0,0,32,11a4.14,4.14,0,0,1-.25,1.74,4.58,4.58,0,0,1-1.15,2l-4.72,4.72h5.8A4.22,4.22,0,0,0,35.94,15.23Z"/><path class="cls-3" d="M18.55,5.21a1.09,1.09,0,0,1,0,.18,1.92,1.92,0,0,1,0,.24c0,.13,0,.27,0,.41v0a5.42,5.42,0,0,1-.83,2.46,5.74,5.74,0,0,1-.74.92l-10,10H17.62l6.71-6.71a5.53,5.53,0,0,0,1.6-4.26A6.26,6.26,0,0,0,25.61,7a5.47,5.47,0,0,0-7.34-3.25c.05.15.1.3.14.46A4.63,4.63,0,0,1,18.55,5.21Z"/><path class="cls-4" d="M18,9.45a5.74,5.74,0,0,0,.74-.92,5.42,5.42,0,0,0,.83-2.46V6c0-.14,0-.28,0-.41a1.92,1.92,0,0,0,0-.24,1.09,1.09,0,0,0,0-.18,4.63,4.63,0,0,0-.14-1c0-.16-.09-.31-.14-.46A5.46,5.46,0,0,0,18,1.62a5.53,5.53,0,0,0-7.82,0L1.7,10.05a5.4,5.4,0,0,0-.62.74L.88,11a5.47,5.47,0,0,0,3.29,8.29,5,5,0,0,0,.67.13H8Z"/><path class="cls-5" d="M31.79,12.77A4.57,4.57,0,0,0,32,11.09,4.68,4.68,0,0,0,25.61,7a6.26,6.26,0,0,1,.32,1.46,5.53,5.53,0,0,1-1.6,4.26l-6.71,6.71h8.3l4.72-4.72A4.58,4.58,0,0,0,31.79,12.77Z"/></svg>