<svg xml:space="preserve" viewBox="0 0 85 83.2" y="0px" x="0px" id="Layer_1" version="1.1"
    xmlns:xlink="http://www.w3.org/1999/xlink" xmlns="http://www.w3.org/2000/svg"
    xmlns:graph="http://ns.adobe.com/Graphs/1.0/"
    xmlns:i="http://ns.adobe.com/AdobeIllustrator/10.0/"
    xmlns:x="http://ns.adobe.com/Extensibility/1.0/">
    <style xmlns="http://www.w3.org/2000/svg" type="text/css">
        .st0{fill:#5E6278;}
        .st1{fill:#FFCE03;}
        .st2{fill:#3BAB3B;}
        .st3{fill:#E91F20;}
        .st4{fill:#00A6E5;}
        .st5{fill:#E4E6EF;}
    </style>
    <path xmlns="http://www.w3.org/2000/svg" class="st1" d="M8,71.9L8,71.9c0,6.1,5,11.2,11.2,11.2h52.6c6.1,0,11.2-5,11.2-11.2v0c0-6.1-5-11.2-11.2-11.2H19.2  C13,60.8,8,65.8,8,71.9z"></path>
    <path xmlns="http://www.w3.org/2000/svg" class="st2" d="M8,51.7L8,51.7c0,6.1,5,11.2,11.2,11.2h52.6c6.1,0,11.2-5,11.2-11.2v0c0-6.1-5-11.2-11.2-11.2H19.2  C13,40.5,8,45.5,8,51.7z"></path>
    <path xmlns="http://www.w3.org/2000/svg" class="st3" d="M8,31.4L8,31.4c0,6.1,5,11.2,11.2,11.2h52.6c6.1,0,11.2-5,11.2-11.2v0c0-6.1-5-11.2-11.2-11.2H19.2  C13,20.3,8,25.3,8,31.4z"></path>
    <path xmlns="http://www.w3.org/2000/svg" class="st4" d="M8,11.2L8,11.2c0,6.1,5,11.2,11.2,11.2h52.6c6.1,0,11.2-5,11.2-11.2v0C83,5,77.9,0,71.8,0L19.2,0  C13,0,8,5,8,11.2z"></path>
    <path xmlns="http://www.w3.org/2000/svg" class="st5" d="M11.2,83.2h41.7c6.1,0,11.2-5,11.2-11.2V11.2C64.1,5,59.1,0,52.9,0H11.2C5,0,0,5,0,11.2V72  C0,78.2,5,83.2,11.2,83.2z"></path>
    <g xmlns="http://www.w3.org/2000/svg">
        <circle class="st0" cx="32.1" cy="34" r="7.2"></circle>
        <path class="st0" d="M23.2,43.7h17.6c3.5,0,6.4,2.9,6.4,6.4v3.3c0,1.7-1.4,3.1-3.1,3.1H20c-1.7,0-3.1-1.4-3.1-3.1v-3.3   C16.9,46.6,19.7,43.7,23.2,43.7z"></path>
    </g>
</svg>