<?xml version="1.0" encoding="utf-8"?>
<!-- Generator: Adobe Illustrator 24.2.1, SVG Export Plug-In . SVG Version: 6.00 Build 0)  -->
<svg version="1.1" id="Layer_1" xmlns="http://www.w3.org/2000/svg" xmlns:xlink="http://www.w3.org/1999/xlink" x="0px" y="0px"
	 viewBox="0 0 54.6 48.9" style="enable-background:new 0 0 54.6 48.9;" xml:space="preserve">
<style type="text/css">
	.st0{fill:#5BBCE9;}
</style>
<title>openum_R</title>
<g>
	<g>
		<g>
			<path class="st0" d="M37.9,29.5c-0.1-7.7-3.7-11.6-10.7-11.6c-6.8,0-10.3,3.9-10.5,11.6H37.9z"/>
			<path class="st0" d="M27.3,0L0,15.4v33.5h54.6V15.4L27.3,0z M43.7,33.1l2.7,2.7c0.5,0.5,1,1,1.5,1.5l1.5,1.6
				c1,1.1,1.9,2.1,2.9,3.2c-1.1-1-2.1-1.9-3.2-2.9l-1.6-1.5c-0.6-0.5-1.1-1-1.6-1.5L43.7,34L40,30.3H13.7l-3.8,3.8l-2,2
				c-0.5,0.5-1,1-1.5,1.4L4.8,39l-3.1,2.8l2.8-3L6,37.2c0.4-0.5,0.9-1,1.4-1.5l2.4-2.4l3.3-3.3l0.1-0.1l-3-3L7.5,24
				c-0.5-0.5-1-1-1.5-1.5l-1.5-1.6c-1-1.1-1.9-2.1-2.9-3.2c1.1,1,2.1,1.9,3.2,2.9L6.5,22C7,22.5,7.5,23,8,23.5l2.3,2.3l0,0
				c1.2-9,6.8-13.5,16.8-13.5c9.6,0,15.3,4.4,16.9,13.3l0,0l2-2c0.5-0.5,1-1,1.5-1.4l1.6-1.4l3.1-2.8l-2.8,3.1L48,22.7
				c-0.4,0.5-0.9,1-1.4,1.5l-2.4,2.4l-3.3,3.4l-0.2,0.2L43.7,33.1z"/>
		</g>
	</g>
</g>
</svg>
