<?xml version="1.0" encoding="utf-8"?>
<!-- Generator: Adobe Illustrator 24.2.1, SVG Export Plug-In . SVG Version: 6.00 Build 0)  -->
<svg version="1.1" id="Layer_1" xmlns="http://www.w3.org/2000/svg" xmlns:xlink="http://www.w3.org/1999/xlink" x="0px" y="0px"
	 viewBox="0 0 103.7 105.1" style="enable-background:new 0 0 103.7 105.1;" xml:space="preserve">
<style type="text/css">
	.st0{fill:#D32365;}
</style>
<title>clickandsignlogo_vertical_R</title>
<path class="st0" d="M93.9,12.7l-0.3-0.3l-0.3-0.3C85.2,4,75.5,0.4,70.5,3.3l-0.2-0.2l-59.1,41L11,44.3l0,0l-0.1,0.1
	c9.6,12.9,7.7,36.1-9.9,53.7l0.6,0.6l1.3,1.4l40-40c-4.3-5.9-3.7-14,1.4-19.2l9.9-9.9c5.8-5.8,15.1-5.8,20.9,0s5.8,15.1,0,20.9l0,0
	l-9.9,9.9c-5.2,5.1-13.3,5.7-19.1,1.4l-40,40l1.3,1.3l0.6,0.6c17.6-17.6,40.8-19.5,53.7-9.9l0.1-0.1l0,0l0.2-0.3l41-59.1l-0.2-0.2
	C105.7,30.5,102.1,20.8,93.9,12.7z"/>
<path class="st0" d="M55.7,53.7l3.6-3.7c0.7-0.7,0.7-1.9,0-2.6s-1.9-0.7-2.6,0L53,51.1c-0.7,0.7-0.7,1.9,0,2.6S55,54.4,55.7,53.7
	L55.7,53.7L55.7,53.7z"/>
</svg>
